<svg version="1.1" id="Layer_1" xmlns="http://www.w3.org/2000/svg" xmlns:xlink="http://www.w3.org/1999/xlink" x="0px" y="0px"
	 width="100%" viewBox="120 125 780 430" enable-background="new 0 0 1024 672" xml:space="preserve">
<path fill="#c21725" opacity="1.000000" stroke="none" 
	d="
M248.443359,448.555481 
	C277.561340,470.054504 308.988281,474.413513 341.610687,460.055511 
	C371.777252,446.778442 388.711609,422.547180 392.833496,389.572449 
	C395.476440,368.429230 389.621979,349.665222 377.253357,332.781250 
	C370.827759,324.009827 366.053864,319.681213 359.109741,333.622681 
	C349.756500,352.400879 339.411987,370.683258 329.658417,389.265350 
	C326.820496,394.671997 322.771454,397.678772 316.640930,397.723846 
	C309.315857,397.777740 301.989868,397.869934 294.665497,397.805115 
	C289.331299,397.757935 288.476410,396.250000 291.011627,391.441193 
	C304.997620,364.912659 319.043793,338.415833 333.026001,311.885284 
	C349.260101,281.081818 365.452698,250.256470 381.647766,219.432465 
	C382.407104,217.987244 383.428070,216.586975 382.989410,214.253036 
	C376.364746,211.726105 369.001801,211.248978 362.002380,209.358643 
	C354.288635,207.275375 346.469177,205.561539 339.232697,202.028168 
	C335.806763,200.355392 332.786591,198.186218 332.837250,193.886963 
	C332.889099,189.482681 335.278412,186.325043 339.072571,184.343185 
	C343.233368,182.169800 347.610413,180.734436 352.425018,180.689438 
	C387.249176,180.364014 422.072845,179.982605 456.896210,179.581406 
	C461.723846,179.525803 466.553253,179.059189 471.374268,179.156891 
	C475.987000,179.250381 480.632111,180.230331 482.954803,184.737198 
	C485.279297,189.247635 482.720673,193.164886 480.068634,196.673798 
	C471.615723,207.857956 459.510712,211.230881 446.316315,212.303482 
	C439.855164,212.828766 433.405487,213.538803 426.970703,214.329010 
	C422.717377,214.851318 419.631805,217.013855 417.840485,221.127640 
	C415.981445,225.396896 413.594757,229.435699 411.719025,233.698563 
	C409.731537,238.215378 410.789673,239.813858 415.811340,239.949280 
	C427.293945,240.258957 438.780060,240.583435 450.265564,240.616821 
	C520.762817,240.821793 591.261902,240.724182 661.756775,241.234512 
	C683.081543,241.388885 704.409668,241.542068 725.736206,241.675171 
	C733.592224,241.724197 735.992004,239.924728 738.719116,232.600754 
	C744.181213,217.931824 749.649780,203.265198 755.160706,188.614563 
	C758.325195,180.201950 761.828430,177.832626 770.960266,177.747681 
	C773.793396,177.721329 776.626831,177.698410 779.459961,177.712219 
	C788.973083,177.758560 792.042969,181.570801 789.011047,190.638046 
	C784.735107,203.425415 780.043396,216.078384 775.321411,228.711060 
	C763.543518,260.220001 751.649353,291.685486 739.796082,323.166229 
	C739.326721,324.412964 738.817993,325.645844 738.293823,326.870758 
	C735.760803,332.790558 734.786926,333.156067 728.343750,331.442963 
	C705.695251,325.421204 683.886169,326.949890 664.306458,340.675476 
	C644.326782,354.681396 634.869080,374.722870 636.661194,398.846802 
	C638.663269,425.796753 652.790283,445.412659 677.536743,456.558533 
	C712.233459,472.185974 754.287170,457.327393 774.567993,422.743225 
	C793.459961,390.527466 789.085266,351.349670 763.384766,323.876831 
	C760.997620,321.325073 760.404053,319.049713 761.714478,315.840240 
	C764.671814,308.596832 767.365295,301.246216 770.225586,293.962585 
	C772.852905,287.272064 773.347778,287.114014 779.022400,291.874542 
	C796.341675,306.403992 808.180176,324.543732 814.782593,346.171204 
	C829.920776,395.759460 811.023438,448.947510 767.914062,477.861389 
	C726.663086,505.528809 671.194885,501.722870 634.611816,468.714844 
	C590.104492,428.557007 592.259216,354.419983 639.223083,317.560760 
	C658.268127,302.613342 680.127502,295.765747 704.422668,296.646942 
	C714.291626,297.004852 714.293152,296.745728 717.754272,287.566406 
	C719.223145,283.670532 720.777405,279.806305 722.208252,275.896698 
	C723.257935,273.028290 722.196472,271.376801 719.119995,271.129395 
	C718.125122,271.049408 717.122681,271.044495 716.123535,271.037628 
	C663.300293,270.674286 610.476868,270.340179 557.653870,269.945831 
	C517.498230,269.646027 477.342957,269.287384 437.187897,268.915039 
	C427.861542,268.828552 418.528839,268.760986 409.213440,268.355011 
	C399.860535,267.947327 393.380127,271.962494 388.749023,279.923950 
	C382.954559,289.885529 382.758484,289.859467 391.180573,297.483032 
	C405.449371,310.398895 415.267639,326.252838 422.218384,344.032196 
	C422.763977,345.427765 423.204224,346.868347 423.815369,348.233459 
	C424.493988,349.749268 425.189514,351.502502 427.183197,351.488647 
	C428.982666,351.476166 429.403046,349.703888 430.138519,348.444397 
	C446.430786,320.544281 470.865448,304.863281 502.789520,301.713287 
	C534.683350,298.566254 561.640259,308.964630 581.387268,334.794312 
	C593.458618,350.584045 597.980347,369.082184 597.219849,388.858551 
	C597.019043,394.080200 594.481873,396.774231 589.325195,397.500031 
	C587.026245,397.823608 584.679077,397.919006 582.353577,397.921204 
	C542.354614,397.959229 502.355682,397.970978 462.356720,397.976929 
	C453.885437,397.978180 453.187317,398.683838 456.016846,406.833710 
	C463.278412,427.749420 477.713959,440.650604 499.567719,444.991730 
	C520.868713,449.223083 539.502197,444.178101 555.069336,428.822327 
	C557.137268,426.782562 558.981506,426.876129 561.329407,428.019470 
	C568.663452,431.590729 575.985657,435.198456 583.437500,438.510834 
	C587.301697,440.228516 587.519165,442.073090 585.037720,445.262360 
	C574.175598,459.223114 560.444336,469.383484 543.572998,474.380646 
	C504.984955,485.810181 470.446167,479.173828 441.830658,449.461090 
	C434.465637,441.813690 429.369720,432.631256 425.603302,422.705597 
	C424.983185,421.071350 424.964874,419.042053 423.053741,417.938843 
	C420.865356,418.814667 420.780243,420.995697 420.104156,422.774445 
	C403.711243,465.902313 372.539734,492.143982 327.627380,500.885040 
	C275.470947,511.036041 221.256592,486.572113 195.618866,438.140747 
	C160.234985,371.298187 195.601410,289.141968 268.136230,268.544708 
	C291.805969,261.823364 315.441956,262.218109 339.049164,268.863342 
	C344.286621,270.337677 344.754211,271.344666 342.264069,276.139557 
	C338.809052,282.792236 335.048737,289.298584 331.878174,296.082153 
	C329.946930,300.214020 327.466125,301.017975 323.183868,300.126526 
	C302.003784,295.717316 281.292328,297.114594 261.989685,307.461548 
	C233.808594,322.567719 218.155838,346.309753 216.356369,378.325226 
	C214.746002,406.976532 226.473068,430.032593 248.443359,448.555481 
M537.306641,338.164001 
	C527.268127,332.828583 516.454529,331.178497 505.341553,332.392700 
	C484.967072,334.618805 469.251404,344.334930 459.533325,362.730377 
	C456.544495,368.387939 457.490540,369.689331 463.964996,369.694305 
	C494.440247,369.717621 524.915588,369.698822 555.390808,369.647064 
	C561.136658,369.637329 561.953369,368.431671 559.739014,363.040741 
	C555.347046,352.348572 548.090820,344.133331 537.306641,338.164001 
z"/>
</svg>
